{
	"asset":{
		"generator":"Khronos glTF Blender I/O v4.0.44",
		"version":"2.0"
	},
	"scene":0,
	"scenes":[
		{
			"name":"Scene",
			"nodes":[
				0
			]
		}
	],
	"nodes":[
		{
			"mesh":0,
			"name":"sails",
			"rotation":[
				0,
				-0.7070819735527039,
				0,
				0.7071316838264465
			],
			"translation":[
				2.232577323913574,
				1.6042481660842896,
				1.391052007675171
			]
		}
	],
	"materials":[
		{
			"doubleSided":true,
			"name":"Sail",
			"pbrMetallicRoughness":{
				"baseColorFactor":[
					0.49701642990112305,
					0.502864420413971,
					0.5028501152992249,
					1
				],
				"metallicFactor":0,
				"roughnessFactor":0.5
			}
		}
	],
	"meshes":[
		{
			"name":"sail_front 1.001",
			"primitives":[
				{
					"attributes":{
						"POSITION":0,
						"NORMAL":1,
						"TEXCOORD_0":2
					},
					"indices":3,
					"material":0
				}
			]
		}
	],
	"accessors":[
		{
			"bufferView":0,
			"componentType":5126,
			"count":504,
			"max":[
				0,
				4.306646823883057,
				5.68747091293335
			],
			"min":[
				-2.707761526107788,
				0.09809112548828125,
				0
			],
			"type":"VEC3"
		},
		{
			"bufferView":1,
			"componentType":5126,
			"count":504,
			"type":"VEC3"
		},
		{
			"bufferView":2,
			"componentType":5126,
			"count":504,
			"type":"VEC2"
		},
		{
			"bufferView":3,
			"componentType":5123,
			"count":720,
			"type":"SCALAR"
		}
	],
	"bufferViews":[
		{
			"buffer":0,
			"byteLength":6048,
			"byteOffset":0,
			"target":34962
		},
		{
			"buffer":0,
			"byteLength":6048,
			"byteOffset":6048,
			"target":34962
		},
		{
			"buffer":0,
			"byteLength":4032,
			"byteOffset":12096,
			"target":34962
		},
		{
			"buffer":0,
			"byteLength":1440,
			"byteOffset":16128,
			"target":34963
		}
	],
	"buffers":[
		{
			"byteLength":17568,
			"uri":"default-sails.bin"
		}
	]
}
